HIERARCHY
ROOT Root
{
	OFFSET 0.00000 0.00000 0.00000
	CHANNELS 6 Xposition Yposition Zposition Zrotation Xrotation Yrotation
	JOINT Hips
	{
		OFFSET 0 0 0	
		CHANNELS 3 Zrotation Xrotation Yrotation
		JOINT Spine
		{
			OFFSET 0 4 0	
			CHANNELS 3 Zrotation Xrotation Yrotation
			JOINT Spine1
			{
				OFFSET 0 19.4 0	
				CHANNELS 3 Zrotation Xrotation Yrotation
				JOINT Spine2
				{
					OFFSET 0 16.6 0	
					CHANNELS 3 Zrotation Xrotation Yrotation
					JOINT LeftCollar
					{
						OFFSET 0 10 0	
						CHANNELS 3 Zrotation Xrotation Yrotation
						JOINT LeftArm
						{
							OFFSET 15.6 -2 3	
							CHANNELS 3 Zrotation Xrotation Yrotation
							JOINT LeftForeArm
							{
								OFFSET 3.5 -27 -1	
								CHANNELS 3 Zrotation Xrotation Yrotation
								JOINT LeftHand
								{
									OFFSET 1 -27 1	
									CHANNELS 3 Zrotation Xrotation Yrotation
									End Site
									{
										OFFSET 0 -15 0
									}
								}
							}
						}
					}
					JOINT RightCollar
					{
						OFFSET 0 10 0	
						CHANNELS 3 Zrotation Xrotation Yrotation
						JOINT RightArm
						{
							OFFSET -15.6 -2 3	
							CHANNELS 3 Zrotation Xrotation Yrotation
							JOINT RightForeArm
							{
								OFFSET -3.5 -27 -1	
								CHANNELS 3 Zrotation Xrotation Yrotation
								JOINT RightHand
								{
									OFFSET -1 -27 1	
									CHANNELS 3 Zrotation Xrotation Yrotation
									End Site
									{
										OFFSET 0 -15 0
									}
								}
							}
						}
					}
					JOINT Neck
					{
						OFFSET 0 10 0	
						CHANNELS 3 Zrotation Xrotation Yrotation
						JOINT Head
						{
							OFFSET 0 12.7 3	
							CHANNELS 3 Zrotation Xrotation Yrotation
							End Site
							{
								OFFSET 0 12.7 3
							}
						}
					}
				}
			}
		}
	}
	JOINT LeftHip
	{
		OFFSET 0 0 0	
		CHANNELS 3 Zrotation Xrotation Yrotation
		JOINT LeftUpLeg
		{
			OFFSET 8.8 -6 0	
			CHANNELS 3 Zrotation Xrotation Yrotation
			JOINT LeftLeg
			{
				OFFSET 0 -39 2	
				CHANNELS 3 Zrotation Xrotation Yrotation
				JOINT LeftFoot
				{
					OFFSET 0 -43 -2	
					CHANNELS 3 Zrotation Xrotation Yrotation
					JOINT LeftFootFront
					{
						OFFSET 0 -7 8.5	
						CHANNELS 3 Zrotation Xrotation Yrotation
						End Site
						{
							OFFSET 0 -0.5 9
						}
					}
				}
				JOINT LeftHeel
				{
					OFFSET 0 -43 -2	
					CHANNELS 3 Zrotation Xrotation Yrotation
					End Site
					{
						OFFSET 0 -7.5 -5
					}
				}
			}
		}
	}
	JOINT RightHip
	{
		OFFSET 0 0 0	
		CHANNELS 3 Zrotation Xrotation Yrotation
		JOINT RightUpLeg
		{
			OFFSET -8.8 -6 0	
			CHANNELS 3 Zrotation Xrotation Yrotation
			JOINT RightLeg
			{
				OFFSET 0 -39 2	
				CHANNELS 3 Zrotation Xrotation Yrotation
				JOINT RightFoot
				{
					OFFSET 0 -43 -2	
					CHANNELS 3 Zrotation Xrotation Yrotation
					JOINT RightFootFront
					{
						OFFSET 0 -7 8.5	
						CHANNELS 3 Zrotation Xrotation Yrotation
						End Site
						{
							OFFSET 0 -0.5 9
						}
					}
				}
				JOINT RightHeel
				{
					OFFSET 0 -43 -2	
					CHANNELS 3 Zrotation Xrotation Yrotation
					End Site
					{
						OFFSET 0 -7.5 -5
					}
				}
			}
		}
	}
}
MOTION
Frames: 11
Frame Time: 0.05
-12.748 93.51 -67.314 -0 0 -0 2.4778 25.507 -24.91 -4.6207 3.8579 4.7486 -4.6207 3.8579 4.7486 -3.8591 3.2668 3.9671 -0 0 -0 -15.996 -41.889 -49.036 -26.921 -29.376 -10.354 33.985 -21.101 26.869 -0 0 -0 30.08 -51.805 30.302 -16.721 -44.569 -35.365 -29.493 -19.218 -23.403 0.73859 -5.9582 -2.6392 -2.7135 -2.6266 1.283 2.4778 25.507 -24.91 21.211 -41.32 76.144 14.24 8.1637 -48.018 -0 0 -0 0 0 -9.3381e-08 -0 0 -0 2.4778 25.507 -24.91 23.395 -32.615 18.762 -18.515 7.9342 -7.5743 -0 0 -0 0 0 -6.6701e-08 -0 0 -0 
-12.782 93.506 -67.466 -0 0 -0 1.8222 25.263 -24.585 -4.4688 4.1828 4.754 -4.4688 4.1828 4.754 -3.7295 3.5389 3.9704 -0 0 -0 -18.73 -42.608 -52.057 -23.978 -28.239 -8.1363 31.201 -18.923 29.133 -0 0 -0 30.442 -53.202 30.436 -16.688 -44.023 -34.735 -30.201 -22.803 -22.762 0.60694 -6.9134 -2.7597 -2.649 -3.3165 1.1719 1.8222 25.263 -24.585 21.662 -41.093 75.984 14.319 8.3608 -47.798 -0 0 -0 -0 0 4.0021e-08 -0 0 -0 1.8222 25.263 -24.585 23.749 -32.231 18.464 -18.469 7.9896 -7.7 -0 0 -0 0 0 -5.6029e-07 -0 0 -0 
-12.808 93.501 -67.564 -0 0 -0 1.3021 25.009 -24.392 -4.4125 4.443 4.7965 -4.4125 4.443 4.7965 -3.6804 3.7574 4.0048 -0 0 -0 -21.342 -42.964 -55.217 -20.607 -26.909 -4.6059 26.31 -18.399 30.309 -0 0 -0 30.836 -54.8 31.019 -17.428 -43.249 -35.157 -30.256 -26.49 -20.277 0.64012 -7.8403 -3.0092 -2.499 -4.0198 0.95452 1.3021 25.009 -24.392 22.133 -40.872 76.143 14.464 8.5823 -47.834 -0 0 -0 -0 0 -0 -0 0 -0 1.3021 25.009 -24.392 24.079 -31.782 18.474 -18.42 8.1229 -7.9295 -0 0 -0 0 0 -5.7363e-07 -0 0 -0 
-12.831 93.494 -67.6 -0 0 -0 0.88438 24.732 -24.339 -4.3962 4.5047 4.8207 -4.3962 4.5047 4.8207 -3.6662 3.8093 4.0248 -0 0 -0 -22.987 -42.833 -57.407 -17.632 -25.303 -1.8273 20.562 -19.204 30.87 -0 0 -0 31.248 -55.888 31.91 -18.417 -42.276 -35.677 -29.983 -29.514 -17.077 0.77491 -8.2512 -3.1812 -2.3201 -4.3681 0.79434 0.88438 24.732 -24.339 22.553 -40.567 76.492 14.728 8.7564 -48.118 -0 0 -0 -0 0 5.3361e-08 -0 0 -0 0.88438 24.732 -24.339 24.337 -31.361 18.616 -18.357 8.4162 -8 -0 0 -0 0 0 -8.0041e-08 -0 0 -0 
-12.851 93.485 -67.572 -0 0 -0 0.53746 24.432 -24.4 -4.3752 4.5164 4.8016 -4.3752 4.5164 4.8016 -3.6486 3.8188 4.0089 -0 0 -0 -23.346 -42.56 -58.3 -15.474 -24.008 -0.50273 15.551 -21.221 29.721 -0 0 -0 31.843 -56.9 33.036 -19.105 -41.314 -35.124 -30.609 -30.736 -13.673 0.96722 -8.4643 -3.4312 -2.0996 -4.5584 0.51612 0.53746 24.432 -24.4 22.9 -40.245 76.698 15.032 9.0298 -48.251 -0 0 -0 -0 0 6.6701e-08 -0 0 -0 0.53746 24.432 -24.4 24.573 -30.95 18.758 -18.268 8.7878 -7.9571 -0 0 -0 -0 0 2.668e-08 -0 0 -0 
-12.869 93.477 -67.487 -0 0 -0 0.29999 24.172 -24.412 -4.3675 4.4831 4.7495 -4.3675 4.4831 4.7495 -3.6426 3.7906 3.9653 -0 0 -0 -22.936 -42.021 -58.57 -14.35 -23.553 1.2493 11.15 -23.946 26.421 -0 0 -0 32.451 -57.561 33.878 -19.798 -40.724 -34.011 -31.601 -29.775 -12.056 1.1461 -8.5365 -3.9791 -1.918 -4.6478 -0.086376 0.29999 24.172 -24.412 23.085 -40.004 76.581 15.273 9.3346 -48.154 -0 0 -0 -0 0 5.3361e-08 -0 0 -0 0.29999 24.172 -24.412 24.771 -30.667 18.725 -18.215 9.1835 -7.7733 -0 0 -0 0 0 -3.6019e-07 -0 0 -0 
-12.887 93.472 -67.358 -0 0 -0 0.19515 23.946 -24.323 -4.3514 4.4021 4.6652 -4.3514 4.4021 4.6652 -3.63 3.722 3.8951 -0 0 -0 -22.469 -41.521 -58.09 -14.217 -22.861 2.2842 8.0402 -26.798 23.275 -0 0 -0 32.833 -57.698 34.176 -20.461 -40.459 -32.785 -32.596 -26.716 -12.377 1.2111 -8.42 -4.5903 -1.8589 -4.598 -0.77083 0.19515 23.946 -24.323 22.897 -39.788 76.118 15.411 9.4732 -47.944 -0 0 -0 0 0 -6.6701e-08 -0 0 -0 0.19515 23.946 -24.323 24.815 -30.523 18.564 -18.177 9.5472 -7.635 -0 0 -0 -0 0 7.3371e-07 -0 0 -0 
-12.907 93.47 -67.21 -0 0 -0 0.20215 23.951 -24.205 -4.3253 4.3104 4.6007 -4.3253 4.3104 4.6007 -3.6089 3.6444 3.8416 -0 0 -0 -21.832 -41.637 -57.165 -15.586 -22.028 1.937 7.657 -29.074 21.889 -0 0 -0 32.777 -57.673 33.521 -20.442 -40.464 -31.512 -33.531 -22.437 -15.249 1.2033 -8.3503 -4.9506 -1.8577 -4.6081 -1.1821 0.20215 23.951 -24.205 22.736 -39.75 75.897 15.513 9.5037 -48.014 -0 0 -0 0 0 -8.0041e-08 -0 0 -0 0.20215 23.951 -24.205 24.814 -30.588 18.55 -18.081 9.7876 -7.7546 -0 0 -0 0 0 -1.0005e-07 -0 0 -0 
-12.927 93.472 -67.065 -0 0 -0 0.23461 24.023 -24.07 -4.2286 4.2142 4.5812 -4.2286 4.2142 4.5812 -3.5284 3.563 3.8262 -0 0 -0 -20.908 -41.915 -56.51 -17.971 -22.05 0.32956 10.28 -29.612 24.24 -0 0 -0 31.938 -57.242 31.659 -19.856 -40.863 -30.839 -33.202 -19.048 -20.023 1.1528 -8.4046 -5.0408 -1.8257 -4.7474 -1.2817 0.23461 24.023 -24.07 22.573 -39.784 75.684 15.578 9.46 -48.157 -0 0 -0 0 0 -9.3381e-08 -0 0 -0 0.23461 24.023 -24.07 24.824 -30.714 18.457 -18.088 9.9258 -7.7612 -0 0 -0 -0 0 7.6039e-07 -0 0 -0 
-12.944 93.474 -66.94 -0 0 -0 0.30099 24.089 -24.083 -4.1171 4.1731 4.5671 -4.1171 4.1731 4.5671 -3.4351 3.5278 3.8152 -0 0 -0 -19.647 -42.138 -55.813 -20.485 -23.338 -1.9219 15.104 -27.859 28.312 -0 0 -0 31.276 -56.44 30.154 -19.953 -41.407 -31.377 -31.954 -16.639 -24.801 1.1433 -8.5669 -4.899 -1.7327 -4.9455 -1.1484 0.30099 24.089 -24.083 22.467 -39.757 75.721 15.554 9.3529 -48.291 -0 0 -0 -0 0 2.668e-08 -0 0 -0 0.30099 24.089 -24.083 24.851 -30.725 18.48 -18.144 9.976 -7.7588 -0 0 -0 0 0 -2.3345e-07 -0 0 -0 
-12.959 93.474 -66.837 -0 0 -0 0.48878 24.205 -24.251 -4.0311 4.1204 4.5579 -4.0311 4.1204 4.5579 -3.3633 3.4831 3.8082 -0 0 -0 -18.607 -42.182 -54.679 -22.356 -24.956 -3.4758 18.997 -25.138 30.994 -0 0 -0 31.108 -55.467 29.699 -20.524 -42.007 -33.418 -30.219 -15.962 -28.966 1.1862 -8.4479 -4.7353 -1.627 -4.8689 -0.99367 0.48878 24.205 -24.251 22.402 -39.824 75.865 15.452 9.2603 -48.297 -0 0 -0 0 0 -8.0041e-08 -0 0 -0 0.48878 24.205 -24.251 24.825 -30.771 18.718 -18.158 10.027 -7.8139 -0 0 -0 -0 0 7.137e-07 -0 0 -0 
